# xmcd
#
# Track frame offsets:
#	150
#	39377
#	65644
#	88867
#	119850
#	131396
#	154217
#	188901
#	202146
#	224616
#	242782
#	278267
#
# Disc length: 3859 seconds
#
# Revision: 1
# Processed by: cddbd v1.5.2PL0 Copyright (c) Steve Scherf et al.
# Submitted via: audiograbber 1.83.01
#
DISCID=ba0f110c
DTITLE=Walter Trout - Full Circle
DYEAR=2006
DGENRE=Blues
TTITLE0=She Takes More Than She Gives
TTITLE1=Workin' Overtime (Jeff Healey)
TTITLE2=Firehouse Mama (Eric Sardinas)
TTITLE3=Who's Listenin' In (Coco Monto
TTITLE4=Slap Happy (Junior Watson)
TTITLE5=Wrapped Around Your Finger (Gu
TTITLE6=A Busy Man (James Harman)
TTITLE7=Highway Song (John Mayall)
TTITLE8=When Will It Ever Change (Bern
TTITLE9=Can't Help Falling Apart (Fini
TTITLE10=Clouds On The Horizon (Joe Bon
TTITLE11=Full Circle (Larry Keene)
EXTD=
EXTT0=
EXTT1=
EXTT2=
EXTT3=
EXTT4=
EXTT5=
EXTT6=
EXTT7=
EXTT8=
EXTT9=
EXTT10=
EXTT11=
PLAYORDER=
